<svg width="85" height="85" viewBox="0 0 85 85" fill="none" xmlns="http://www.w3.org/2000/svg">
<path d="M67.5684 49.9707C66.1944 49.9707 65.0781 51.087 65.0781 52.4609C65.0781 53.8349 66.1944 54.9512 67.5684 54.9512C68.9423 54.9512 70.0586 53.8349 70.0586 52.4609C70.0586 51.087 68.9423 49.9707 67.5684 49.9707Z" fill="white"/>
<path d="M82.5098 15.1074H25.109V22.5781C25.109 23.9546 23.9952 25.0684 22.6188 25.0684C21.2424 25.0684 20.1286 23.9546 20.1286 22.5781V15.1074H2.49023C1.1138 15.1074 0 16.2212 0 17.5977V32.5391C0 33.9155 1.1138 35.0293 2.49023 35.0293C6.60975 35.0293 9.96094 38.3805 9.96094 42.5C9.96094 46.6195 6.60975 49.9707 2.49023 49.9707C1.1138 49.9707 0 51.0845 0 52.4609V67.4023C0 68.7788 1.1138 69.8926 2.49023 69.8926H19.9219V62.4219C19.9219 61.0454 21.0357 59.9316 22.4121 59.9316C23.7885 59.9316 24.9023 61.0454 24.9023 62.4219V69.8926H82.5098C83.8862 69.8926 85 68.7788 85 67.4023V17.5977C85 16.2212 83.8862 15.1074 82.5098 15.1074ZM24.9023 52.4609C24.9023 53.8374 23.7885 54.9512 22.4121 54.9512C21.0357 54.9512 19.9219 53.8374 19.9219 52.4609V47.4805C19.9219 46.104 21.0357 44.9902 22.4121 44.9902C23.7885 44.9902 24.9023 46.104 24.9023 47.4805V52.4609ZM24.9023 37.5195C24.9023 38.896 23.7885 40.0098 22.4121 40.0098C21.0357 40.0098 19.9219 38.896 19.9219 37.5195V32.5391C19.9219 31.1626 21.0357 30.0488 22.4121 30.0488C23.7885 30.0488 24.9023 31.1626 24.9023 32.5391V37.5195ZM40.1758 32.5391C40.1758 28.4196 43.527 25.0684 47.6465 25.0684C51.766 25.0684 55.1172 28.4196 55.1172 32.5391C55.1172 36.6586 51.766 40.0098 47.6465 40.0098C43.527 40.0098 40.1758 36.6586 40.1758 32.5391ZM46.2652 59.5133C45.1199 58.7496 44.8109 57.2055 45.5746 56.06L65.4965 26.1772C66.2577 25.0318 67.8019 24.7254 68.9498 25.4866C70.0951 26.2502 70.4041 27.7943 69.6404 28.9398L49.7185 58.8227C48.9673 59.9511 47.4288 60.2846 46.2652 59.5133ZM67.5684 59.9316C63.4488 59.9316 60.0977 56.5804 60.0977 52.4609C60.0977 48.3414 63.4488 44.9902 67.5684 44.9902C71.6879 44.9902 75.0391 48.3414 75.0391 52.4609C75.0391 56.5804 71.6879 59.9316 67.5684 59.9316Z" fill="white"/>
<path d="M47.6465 30.0488C46.2725 30.0488 45.1562 31.1651 45.1562 32.5391C45.1562 33.913 46.2725 35.0293 47.6465 35.0293C49.0204 35.0293 50.1367 33.913 50.1367 32.5391C50.1367 31.1651 49.0204 30.0488 47.6465 30.0488Z" fill="white"/>
</svg>
