<svg width="73" height="73" viewBox="0 0 73 73" fill="none" xmlns="http://www.w3.org/2000/svg">
<path d="M65.0046 37.9886C65.2532 38.2371 65.5789 38.3615 65.9045 38.3615C66.229 38.3615 66.5521 38.2384 66.8006 37.9923L71.5086 33.3265C72.4707 32.3645 73.0001 31.0868 73.0001 29.7271C73.0001 28.3673 72.4706 27.0897 71.5086 26.1276L63.8723 18.4913C61.9483 16.5673 58.6012 16.5636 56.6697 18.495L52.0077 23.1994C51.5144 23.6978 51.5156 24.4995 52.0114 24.9954L65.0046 37.9886Z" fill="white"/>
<path d="M59.6281 45.0767L63.185 41.5484C63.4248 41.3109 63.5604 40.9862 63.5616 40.6465C63.5628 40.3081 63.4285 39.9835 63.1887 39.7434L58.508 35.0586C58.0307 34.581 57.1856 34.581 56.7083 35.0586L32.5005 59.2874C32.2109 59.5772 32.0792 59.9878 32.1437 60.392C32.2096 60.7963 32.4656 61.1446 32.831 61.3275L34.8183 62.3227V65.6694L28.7294 67.4117L22.5834 61.2603L24.3242 55.1662H27.6681L28.6624 57.1553C28.8451 57.521 29.1931 57.7773 29.597 57.8432C29.6654 57.8544 29.7337 57.8594 29.8008 57.8594C30.1351 57.8594 30.4607 57.7275 30.7007 57.4862L54.9084 33.2574C55.1471 33.0186 55.2813 32.6952 55.2813 32.3568C55.2813 32.0184 55.1471 31.695 54.9084 31.4562L50.2277 26.7714C49.9891 26.5326 49.666 26.3982 49.3278 26.3982H49.3253C48.986 26.3994 48.6616 26.5351 48.4242 26.7751L44.8991 30.3351L31.9486 17.3732C31.4514 16.8756 30.646 16.8756 30.149 17.3732L17.4217 30.1114C16.9245 30.6089 16.9245 31.415 17.4217 31.9126L19.4402 33.9328C19.9374 34.4303 20.7428 34.4303 21.2399 33.9328L26.3308 28.8374C26.8131 28.3573 27.6483 28.3573 28.1305 28.8374C28.3703 29.0788 28.5033 29.3985 28.5033 29.738C28.5033 30.0776 28.3703 30.3974 28.1305 30.6386L23.0395 35.734C22.5423 36.2315 22.5423 37.0376 23.0395 37.5352L24.531 39.028C25.0282 39.5255 25.8336 39.5255 26.3307 39.028L31.4216 33.9326C31.9039 33.4525 32.7391 33.4525 33.2213 33.9326C33.4611 34.174 33.5941 34.4937 33.5941 34.8333C33.5941 35.1728 33.4611 35.4926 33.2213 35.7339L28.1303 40.8292C27.6331 41.3268 27.6331 42.1329 28.1303 42.6304L30.4373 44.9393L22.4604 52.995C22.448 53.0077 22.4484 53.0269 22.4366 53.04C22.306 53.1814 22.1968 53.3443 22.1398 53.5425L19.9299 61.2812L17.0488 71.3763C16.922 71.8204 17.0463 72.2993 17.3733 72.6265C17.6156 72.8691 17.94 72.9997 18.2732 72.9997C18.39 72.9997 18.5068 72.9835 18.6224 72.9511L28.7084 70.0676L36.4405 67.8558C36.4637 67.8491 36.4797 67.8316 36.5025 67.8236C36.5828 67.7959 36.6531 67.7508 36.7269 67.7071C36.7995 67.6641 36.872 67.6258 36.9334 67.5704C36.9498 67.5558 36.9714 67.5505 36.9873 67.5348L45.0361 59.551L47.3915 61.9084C47.8887 62.406 48.6941 62.406 49.1912 61.9084L54.2821 56.8131C54.7644 56.333 55.5996 56.333 56.0818 56.8131C56.5777 57.3095 56.5777 58.1181 56.0818 58.6143L50.9909 63.7096C50.4937 64.2072 50.4937 65.0133 50.9909 65.5109L52.4823 67.0036C52.9795 67.5012 53.7849 67.5012 54.282 67.0036L59.3729 61.9083C59.8552 61.4282 60.6904 61.4282 61.1726 61.9083C61.6685 62.4047 61.6685 63.2133 61.1726 63.7095L56.0817 68.8049C55.5845 69.3024 55.5845 70.1085 56.0817 70.6061L58.1002 72.6262C58.3487 72.875 58.6744 72.9995 59.0001 72.9995C59.3257 72.9995 59.6513 72.875 59.9 72.6262L72.6272 59.888C73.1244 59.3905 73.1244 58.5844 72.6272 58.0868L59.6281 45.0767Z" fill="white"/>
</svg>
