<svg width="77" height="77" viewBox="0 0 77 77" fill="none" xmlns="http://www.w3.org/2000/svg">
<path d="M4.8125 40.8599V69.7349C4.8125 72.3914 6.97331 74.5474 9.625 74.5474H33.6875V40.8599H4.8125Z" fill="white"/>
<path d="M72.1875 21.61H56.9608C58.0532 20.8641 58.9916 20.1229 59.6461 19.4588C63.5298 15.5559 63.5298 9.20337 59.6461 5.30043C55.8731 1.49856 49.2993 1.50818 45.5311 5.30043C43.4424 7.39387 37.9081 15.9168 38.6733 21.61H38.3268C39.0871 15.9168 33.5527 7.39387 31.4689 5.30043C27.6959 1.50818 21.1221 1.50818 17.3539 5.30043C13.475 9.20337 13.475 15.5559 17.3491 19.4588C18.0084 20.1229 18.9468 20.8641 20.0392 21.61H4.8125C2.16081 21.61 0 23.7708 0 26.4225V33.6412C0 34.9695 1.078 36.0475 2.40625 36.0475H33.6875V26.4225H43.3125V36.0475H74.5938C75.922 36.0475 77 34.9695 77 33.6412V26.4225C77 23.7708 74.844 21.61 72.1875 21.61ZM33.4036 21.4512C33.4036 21.4512 33.2014 21.61 32.5132 21.61C29.1878 21.61 22.8401 18.1546 20.7659 16.066C18.7495 14.0351 18.7495 10.7241 20.7659 8.69325C21.7429 7.7115 23.0374 7.1725 24.4138 7.1725C25.7854 7.1725 27.0799 7.7115 28.0569 8.69325C31.3005 11.9561 34.5249 20.2914 33.4036 21.4512ZM44.4819 21.61C43.7986 21.61 43.5964 21.456 43.5964 21.4512C42.4751 20.2914 45.6995 11.9561 48.9431 8.69325C50.8826 6.73456 54.2754 6.72494 56.2341 8.69325C58.2553 10.7241 58.2553 14.0351 56.2341 16.066C54.1599 18.1546 47.8122 21.61 44.4819 21.61Z" fill="white"/>
<path d="M43.3125 40.8599V74.5474H67.375C70.0315 74.5474 72.1875 72.3914 72.1875 69.7349V40.8599H43.3125Z" fill="white"/>
</svg>
