<svg width="77" height="50" viewBox="0 0 77 50" fill="none" xmlns="http://www.w3.org/2000/svg">
<path d="M41.3518 25.0001C41.3518 19.3226 46.4549 14.7027 52.7272 14.7027H71.978V4.24418C71.978 1.90269 69.879 8.07947e-09 67.2902 8.07947e-09H4.68777C2.09895 -0.000143159 0 1.9024 0 4.24404V45.7558C0 48.1002 2.09895 50 4.68777 50H67.2902C69.879 50 71.978 48.1002 71.978 45.7558V35.2972H52.7272C46.4546 35.2973 41.3518 30.6775 41.3518 25.0001Z" fill="white"/>
<path d="M74.5111 18.1813H52.7273C48.5678 18.1813 45.1951 21.2342 45.1951 25.0003C45.1951 28.7669 48.5678 31.8192 52.7273 31.8192H74.5115C75.8857 31.8192 77 30.809 77 29.568V20.4344C77 19.1912 75.8853 18.1813 74.5111 18.1813Z" fill="white"/>
</svg>
