<svg width="73" height="73" viewBox="0 0 73 73" fill="none" xmlns="http://www.w3.org/2000/svg">
<path d="M31.0882 42.1028H23.1727V59.493H31.0882V42.1028Z" fill="#F1F1F1"/>
<path d="M60.2204 8.8853V1.25452H46.7313V8.8853H43.1267V1.25452H29.6377V8.87332V8.8853H34.1097V8.87332V5.72662H38.6548V8.88544H34.1097V11.1215V13.3575V16.6222H37.911V21.0943H29.6377V13.3574V11.1213V8.8853H26.0348V1.25452H12.5456V8.87332V8.8853H17.0177V8.87332V5.72662H21.5628V8.88544H17.0177V11.1215V13.3575V16.6222H20.819V21.0943H12.5456V13.3574V11.1213V8.8853H0V24.5732H2.23605H4.47211H68.528H70.7641H73V8.8853H60.2204ZM55.0045 21.094H46.7313V13.3574V11.1213V8.92251H51.2032V11.1212V13.3573V16.6219H55.0045V21.094ZM55.7483 8.8853H51.2032V5.72662H55.7483V8.8853Z" fill="#F1F1F1"/>
<path d="M70.7639 29.0452H68.5279H4.47196H2.23605H0V70H73V29.0452H70.7639ZM35.5601 62.5368H18.7005V37.279H35.5601V62.5368ZM54.2995 62.5368H39.6759V58.2475H49.8275V52.0525H44.145V47.7633H49.8275V41.5683H39.6759V37.279H54.2995V62.5368Z" fill="#F1F1F1"/>
</svg>
