<svg width="60" height="70" viewBox="0 0 60 70" fill="none" xmlns="http://www.w3.org/2000/svg">
<path d="M29.8041 21.6642C22.4496 21.6642 16.4666 27.6472 16.4666 35.0012C16.4666 42.3557 22.4496 48.3388 29.8041 48.3388C37.1581 48.3388 43.1411 42.3557 43.1411 35.0012C43.1411 27.6472 37.1581 21.6642 29.8041 21.6642ZM37.7226 32.4895L28.1678 42.0444C27.7667 42.4454 27.2406 42.6462 26.7151 42.6462C26.1896 42.6462 25.6641 42.446 25.263 42.0444L21.6117 38.393C20.8095 37.5914 20.8095 36.291 21.6117 35.4888C22.4133 34.6866 23.7137 34.6866 24.5159 35.4888L26.7151 37.6881L34.8184 29.5853C35.62 28.7832 36.9204 28.7832 37.7226 29.5853C38.5247 30.3869 38.5247 31.6874 37.7226 32.4895Z" fill="white"/>
<path d="M59.5392 18.9928L59.5371 18.9383C59.5066 18.2659 59.4863 17.5546 59.4741 16.7631C59.4169 12.9035 56.3488 9.71088 52.4886 9.49512C44.4404 9.04598 38.2144 6.42162 32.8946 1.23647L32.8492 1.19321C31.1141 -0.397738 28.4967 -0.397738 26.761 1.19321L26.7156 1.23647C21.3959 6.42162 15.1698 9.04598 7.12161 9.49565C3.26199 9.71088 0.193303 12.9035 0.136159 16.7636C0.12441 17.5498 0.103582 18.2611 0.0731407 18.9383L0.0699365 19.0649C-0.0865419 27.2717 -0.280938 37.4855 3.13595 46.7562C5.01476 51.8543 7.86021 56.2859 11.5927 59.9287C15.8438 64.0773 21.4119 67.3708 28.1421 69.7174C28.361 69.7938 28.5885 69.8558 28.8203 69.9022C29.1472 69.9674 29.4761 69.9999 29.8051 69.9999C30.1341 69.9999 30.4636 69.9674 30.7899 69.9022C31.0217 69.8558 31.2508 69.7933 31.4708 69.7164C38.193 67.3654 43.7552 64.0703 48.0025 59.9223C51.7335 56.2784 54.5789 51.8458 56.4593 46.7466C59.889 37.4482 59.6952 27.2151 59.5392 18.9928ZM29.804 52.4461C20.1846 52.4461 12.3591 44.6205 12.3591 35.0011C12.3591 25.3817 20.1846 17.5562 29.804 17.5562C39.4229 17.5562 47.249 25.3817 47.249 35.0011C47.249 44.6205 39.4229 52.4461 29.804 52.4461Z" fill="white"/>
</svg>
