<svg width="68" height="68" viewBox="0 0 68 68" fill="none" xmlns="http://www.w3.org/2000/svg">
<path d="M30.5047 41.5023C30.6193 41.5619 30.7479 41.5892 30.8768 41.5812C31.0057 41.5732 31.13 41.5303 31.2364 41.457L40.4447 35.082C40.5388 35.0168 40.6157 34.9298 40.6688 34.8284C40.7219 34.727 40.7497 34.6142 40.7497 34.4998C40.7497 34.3853 40.7219 34.2725 40.6688 34.1711C40.6157 34.0697 40.5388 33.9827 40.4447 33.9175L31.2364 27.5425C31.1301 27.469 31.0057 27.4259 30.8768 27.418C30.7478 27.4101 30.6191 27.4376 30.5046 27.4975C30.3901 27.5575 30.2943 27.6477 30.2274 27.7582C30.1604 27.8688 30.125 27.9955 30.125 28.1248V40.8748C30.125 41.004 30.1603 41.1309 30.2273 41.2415C30.2942 41.3521 30.3901 41.4423 30.5047 41.5023Z" fill="#FFEFC8"/>
<circle cx="34.5" cy="34.5" r="17.5" fill="#FFEFC8" fill-opacity="0.28"/>
<circle cx="34" cy="35" r="26" fill="#FFEAB8" fill-opacity="0.27"/>
<circle cx="34" cy="34" r="34" fill="#FFEFC8" fill-opacity="0.21"/>
</svg>
