<svg width="26" height="29" viewBox="0 0 26 29" fill="none" xmlns="http://www.w3.org/2000/svg">
<g opacity="0.5">
<g clip-path="url(#clip0)">
<path d="M3.80859 28.6426H12.2891V18.7729H9.24219V15.5191H12.2891V11.4519C12.2891 9.20924 13.9976 7.38472 16.0977 7.38472H19.9062V10.6385H16.8594C16.0193 10.6385 15.3359 11.3683 15.3359 12.2654V15.5191H19.7688L19.261 18.7729H15.3359V28.6426H22.1914C24.2915 28.6426 26 26.8181 26 24.5754V4.9444C26 2.70172 24.2915 0.877197 22.1914 0.877197H3.80859C1.70851 0.877197 0 2.70172 0 4.9444V24.5754C0 26.8181 1.70851 28.6426 3.80859 28.6426ZM1.52344 4.9444C1.52344 3.59883 2.54858 2.50408 3.80859 2.50408H22.1914C23.4514 2.50408 24.4766 3.59883 24.4766 4.9444V24.5754C24.4766 25.921 23.4514 27.0158 22.1914 27.0158H16.8594V20.3998H20.5515L21.5672 13.8922H16.8594V12.2654H21.4297V5.75784H16.0977C13.1575 5.75784 10.7656 8.31213 10.7656 11.4519V13.8922H7.71875V20.3998H10.7656V27.0158H3.80859C2.54858 27.0158 1.52344 25.921 1.52344 24.5754V4.9444Z" fill="white"/>
</g>
</g>
<defs>
<clipPath id="clip0">
<rect y="0.877197" width="26" height="27.7654" fill="white"/>
</clipPath>
</defs>
</svg>
