<svg width="26" height="29" viewBox="0 0 26 29" fill="none" xmlns="http://www.w3.org/2000/svg">
<g opacity="0.5">
<g clip-path="url(#clip0)">
<path d="M3.80859 28.4453H22.1914C24.2915 28.4453 26 26.6207 26 24.378V4.74696C26 2.50427 24.2915 0.679749 22.1914 0.679749H3.80859C1.70851 0.679749 0 2.50427 0 4.74696V24.378C0 26.6207 1.70851 28.4453 3.80859 28.4453ZM1.52344 4.74696C1.52344 3.40139 2.54858 2.30663 3.80859 2.30663H22.1914C23.4514 2.30663 24.4766 3.40139 24.4766 4.74696V24.378C24.4766 25.7236 23.4514 26.8184 22.1914 26.8184H3.80859C2.54858 26.8184 1.52344 25.7236 1.52344 24.378V4.74696Z" fill="white"/>
<path d="M13 21.8835C16.78 21.8835 19.8555 18.5992 19.8555 14.5625C19.8555 10.5258 16.78 7.24152 13 7.24152C9.21997 7.24152 6.14453 10.5258 6.14453 14.5625C6.14453 18.5992 9.21997 21.8835 13 21.8835ZM13 8.8684C15.9402 8.8684 18.332 11.4227 18.332 14.5625C18.332 17.7023 15.9402 20.2566 13 20.2566C10.0598 20.2566 7.66797 17.7023 7.66797 14.5625C7.66797 11.4227 10.0598 8.8684 13 8.8684Z" fill="white"/>
<path d="M20.6172 8.8684C21.8772 8.8684 22.9023 7.77364 22.9023 6.42807C22.9023 5.08251 21.8772 3.98775 20.6172 3.98775C19.3572 3.98775 18.332 5.08251 18.332 6.42807C18.332 7.77364 19.3572 8.8684 20.6172 8.8684ZM20.6172 5.61463C21.0371 5.61463 21.3789 5.97962 21.3789 6.42807C21.3789 6.87653 21.0371 7.24152 20.6172 7.24152C20.1973 7.24152 19.8555 6.87653 19.8555 6.42807C19.8555 5.97962 20.1973 5.61463 20.6172 5.61463Z" fill="white"/>
</g>
</g>
<defs>
<clipPath id="clip0">
<rect y="0.679749" width="26" height="27.7655" fill="white"/>
</clipPath>
</defs>
</svg>
