<svg width="32" height="36" viewBox="0 0 32 36" fill="none" xmlns="http://www.w3.org/2000/svg">
<g opacity="0.5">
<g clip-path="url(#clip0)">
<path d="M32 7.74319C29.9871 7.84226 30.031 7.83418 29.8035 7.85452L30.9956 4.2188C30.9956 4.2188 27.2744 5.68065 26.3311 5.94215C23.8535 3.56414 20.1709 3.45907 17.5381 5.18711C15.3821 6.60255 14.2249 9.03323 14.6108 11.8743C10.4148 11.2525 6.87939 9.12839 4.08813 5.54768L3.20532 4.41538L2.54565 5.70907C1.71191 7.34377 1.43506 9.21286 1.76587 10.9719C1.90161 11.6936 2.13232 12.3819 2.4519 13.0264L1.69458 12.713L1.60474 14.0643C1.51367 15.437 1.94165 17.0394 2.74976 18.3503C2.97729 18.7194 3.27026 19.1249 3.6416 19.5248L3.25024 19.4607L3.72778 21.0091C4.35547 23.0435 5.65918 24.6174 7.35107 25.4924C5.66138 26.2581 4.29639 26.7467 2.05273 27.5348L0 28.2555L1.896 29.3625C2.6189 29.7846 5.17334 31.1943 7.69726 31.6172C13.3076 32.5568 19.6243 31.7916 23.8767 27.7017C27.4585 24.2568 28.6338 19.3566 28.3896 14.2572C28.3528 13.4853 28.5508 12.7485 28.9473 12.183C29.7414 11.0507 31.9951 7.75075 32 7.74319ZM27.448 10.9837C26.7895 11.9225 26.4597 13.1216 26.5188 14.3594C26.7651 19.5032 25.4546 23.4921 22.6233 26.2151C19.3159 29.3961 13.9812 30.6447 7.98755 29.6407C6.9021 29.4589 5.78027 29.052 4.85181 28.6455C6.73291 27.9543 8.18554 27.3383 10.5315 26.1525L13.8064 24.4972L10.1907 24.2501C8.45874 24.1317 7.0166 23.2353 6.13013 21.78C6.60083 21.7508 7.05469 21.6695 7.50659 21.5349L10.9551 20.5093L7.47778 19.5999C5.78808 19.158 4.82495 18.0783 4.31445 17.2503C3.97925 16.7062 3.76025 16.1488 3.62891 15.6349C3.97754 15.7347 4.38403 15.8059 5.03955 15.8753L8.25805 16.2152L5.70801 14.0909C3.8706 12.5605 3.13428 10.2612 3.67407 8.05084C9.40845 14.4025 16.1414 13.9251 16.8191 14.093C16.6699 12.5456 16.666 12.542 16.6269 12.3947C15.759 9.11822 17.6611 7.45458 18.519 6.89142C20.311 5.71532 23.1555 5.53804 25.1257 7.47569C25.5513 7.89389 26.1267 8.0584 26.6653 7.91553C27.1487 7.78725 27.5454 7.65142 27.9338 7.50359L27.1252 9.96947L28.1575 9.97025C27.9626 10.2492 27.729 10.5832 27.448 10.9837Z" fill="white"/>
</g>
</g>
<defs>
<clipPath id="clip0">
<rect y="0.870941" width="32" height="34.1729" fill="white"/>
</clipPath>
</defs>
</svg>
